<svg width="1567" height="710" viewBox="0 0 1567 710" fill="none" xmlns="http://www.w3.org/2000/svg">
<path opacity="0.15" d="M3.51196 630.05C-11.4992 565.909 49.8468 510.362 107.974 511.065C166.101 511.769 219.726 548.13 273.457 575.9C408.863 645.89 562.933 664.687 704.428 628.484C766.16 612.686 826.886 585.74 872.451 537.361C918.021 488.982 946.408 416.441 935.327 344.833C924.241 273.225 867.478 207.945 803.551 206.57C746.768 205.349 696.846 253.817 679.444 313.97C662.042 374.123 673.115 442.578 698.607 501.106C751.004 621.394 866.247 705.447 982.966 708.5C1099.68 711.554 1211.99 633.45 1260.07 515.787C1289.54 443.666 1295.61 361.739 1306.55 282.492C1317.5 203.244 1335.27 121.603 1382.49 63.2652C1427.4 7.78102 1506.11 -18.6852 1566.01 18.055" stroke="black" stroke-width="2" stroke-miterlimit="10" stroke-linecap="round" stroke-dasharray="10 10"/>
</svg>
