<svg width="32" height="32" viewBox="0 0 32 32" fill="none" xmlns="http://www.w3.org/2000/svg">
<path d="M0 23.9991C0 24.9421 0.374602 25.8465 1.0414 26.5133C1.70819 27.1801 2.61256 27.5547 3.55556 27.5547H28.4444C29.3874 27.5547 30.2918 27.1801 30.9586 26.5133C31.6254 25.8465 32 24.9421 32 23.9991V19.5547H0V23.9991Z" fill="#138808"/>
<path d="M32 12.4453V8.00087C32 7.05788 31.6254 6.15351 30.9586 5.48671C30.2918 4.81991 29.3874 4.44531 28.4444 4.44531H3.55556C2.61256 4.44531 1.70819 4.81991 1.0414 5.48671C0.374602 6.15351 0 7.05788 0 8.00087L0 12.4453H32Z" fill="#FF9933"/>
<path d="M0 12.1484H32V19.8524H0V12.1484Z" fill="#F7F7F7"/>
<path d="M16.0009 19.5564C17.9645 19.5564 19.5564 17.9645 19.5564 16.0009C19.5564 14.0372 17.9645 12.4453 16.0009 12.4453C14.0372 12.4453 12.4453 14.0372 12.4453 16.0009C12.4453 17.9645 14.0372 19.5564 16.0009 19.5564Z" fill="#000080"/>
<path d="M16 19C17.6569 19 19 17.6569 19 16C19 14.3431 17.6569 13 16 13C14.3431 13 13 14.3431 13 16C13 17.6569 14.3431 19 16 19Z" fill="#F7F7F7"/>
<path d="M16.0896 14.8896L16.0007 15.4674L15.9118 14.8896L16.0007 13.1562L16.0896 14.8896ZM15.2647 13.2531L15.6274 14.95L15.8629 15.4851L15.7989 14.9047L15.2647 13.2531ZM14.5785 13.5376L15.3678 15.0825L15.734 15.5385L15.5225 14.9936L14.5785 13.5376ZM13.9891 13.9891L15.1518 15.278L15.6238 15.6238L15.278 15.1518L13.9891 13.9891ZM13.5376 14.5785L14.9936 15.5225L15.5385 15.734L15.0825 15.3678L13.5376 14.5785ZM13.2531 15.2647L14.9047 15.7989L15.4851 15.8629L14.95 15.6274L13.2531 15.2647ZM13.1562 16.0007L14.8896 16.0896L15.4674 16.0007L14.8896 15.9118L13.1562 16.0007ZM13.2531 16.7367L14.95 16.374L15.4851 16.1385L14.9047 16.2025L13.2531 16.7367ZM13.5376 17.4229L15.0825 16.6336L15.5385 16.2674L14.9936 16.4789L13.5376 17.4229ZM13.9891 18.0123L15.278 16.8496L15.6238 16.3776L15.1518 16.7234L13.9891 18.0123ZM14.5785 18.4638L15.5225 17.0078L15.734 16.4629L15.3678 16.9189L14.5785 18.4638ZM15.2647 18.7482L15.7989 17.0967L15.8629 16.5162L15.6274 17.0514L15.2647 18.7482ZM16.0007 18.8451L16.0896 17.1118L16.0007 16.534L15.9118 17.1118L16.0007 18.8451ZM16.7367 18.7482L16.374 17.0514L16.1385 16.5162L16.2025 17.0967L16.7367 18.7482ZM17.4229 18.4638L16.6336 16.9189L16.2674 16.4629L16.4789 17.0078L17.4229 18.4638ZM18.0123 18.0123L16.8496 16.7234L16.3776 16.3776L16.7234 16.8496L18.0123 18.0123ZM18.4638 17.4229L17.0078 16.4789L16.4629 16.2674L16.9189 16.6336L18.4638 17.4229ZM18.7482 16.7367L17.0967 16.2025L16.5162 16.1385L17.0514 16.374L18.7482 16.7367ZM18.8451 16.0007L17.1118 15.9118L16.534 16.0007L17.1118 16.0896L18.8451 16.0007ZM18.7482 15.2647L17.0514 15.6274L16.5162 15.8629L17.0967 15.7989L18.7482 15.2647ZM18.4638 14.5785L16.9189 15.3678L16.4629 15.734L17.0078 15.5225L18.4638 14.5785ZM18.0123 13.9891L16.7234 15.1518L16.3776 15.6238L16.8496 15.278L18.0123 13.9891ZM17.4229 13.5376L16.4789 14.9936L16.2674 15.5385L16.6336 15.0825L17.4229 13.5376ZM16.7367 13.2531L16.2025 14.9047L16.1385 15.4851L16.374 14.95L16.7367 13.2531Z" fill="#6666B3"/>
<path d="M15.6075 13.2071C15.7056 13.2071 15.7852 13.1275 15.7852 13.0293C15.7852 12.9312 15.7056 12.8516 15.6075 12.8516C15.5093 12.8516 15.4297 12.9312 15.4297 13.0293C15.4297 13.1275 15.5093 13.2071 15.6075 13.2071Z" fill="#000080"/>
<path d="M14.8536 13.4102C14.9517 13.4102 15.0313 13.3306 15.0313 13.2325C15.0313 13.1343 14.9517 13.0547 14.8536 13.0547C14.7554 13.0547 14.6758 13.1343 14.6758 13.2325C14.6758 13.3306 14.7554 13.4102 14.8536 13.4102Z" fill="#000080"/>
<path d="M14.1739 13.8009C14.2721 13.8009 14.3516 13.7213 14.3516 13.6231C14.3516 13.5249 14.2721 13.4453 14.1739 13.4453C14.0757 13.4453 13.9961 13.5249 13.9961 13.6231C13.9961 13.7213 14.0757 13.8009 14.1739 13.8009Z" fill="#000080"/>
<path d="M13.6231 14.3556C13.7213 14.3556 13.8009 14.276 13.8009 14.1778C13.8009 14.0796 13.7213 14 13.6231 14C13.5249 14 13.4453 14.0796 13.4453 14.1778C13.4453 14.276 13.5249 14.3556 13.6231 14.3556Z" fill="#000080"/>
<path d="M13.2325 15.0274C13.3306 15.0274 13.4102 14.9478 13.4102 14.8497C13.4102 14.7515 13.3306 14.6719 13.2325 14.6719C13.1343 14.6719 13.0547 14.7515 13.0547 14.8497C13.0547 14.9478 13.1343 15.0274 13.2325 15.0274Z" fill="#000080"/>
<path d="M13.0293 15.7852C13.1275 15.7852 13.2071 15.7056 13.2071 15.6075C13.2071 15.5093 13.1275 15.4297 13.0293 15.4297C12.9312 15.4297 12.8516 15.5093 12.8516 15.6075C12.8516 15.7056 12.9312 15.7852 13.0293 15.7852Z" fill="#000080"/>
<path d="M13.0293 16.5665C13.1275 16.5665 13.2071 16.4869 13.2071 16.3887C13.2071 16.2905 13.1275 16.2109 13.0293 16.2109C12.9312 16.2109 12.8516 16.2905 12.8516 16.3887C12.8516 16.4869 12.9312 16.5665 13.0293 16.5665Z" fill="#000080"/>
<path d="M13.2325 17.3243C13.3306 17.3243 13.4102 17.2447 13.4102 17.1465C13.4102 17.0483 13.3306 16.9688 13.2325 16.9688C13.1343 16.9688 13.0547 17.0483 13.0547 17.1465C13.0547 17.2447 13.1343 17.3243 13.2325 17.3243Z" fill="#000080"/>
<path d="M13.6231 18.004C13.7213 18.004 13.8009 17.9244 13.8009 17.8262C13.8009 17.728 13.7213 17.6484 13.6231 17.6484C13.5249 17.6484 13.4453 17.728 13.4453 17.8262C13.4453 17.9244 13.5249 18.004 13.6231 18.004Z" fill="#000080"/>
<path d="M14.1739 18.5509C14.2721 18.5509 14.3516 18.4713 14.3516 18.3731C14.3516 18.2749 14.2721 18.1953 14.1739 18.1953C14.0757 18.1953 13.9961 18.2749 13.9961 18.3731C13.9961 18.4713 14.0757 18.5509 14.1739 18.5509Z" fill="#000080"/>
<path d="M14.8536 18.9415C14.9517 18.9415 15.0313 18.8619 15.0313 18.7637C15.0313 18.6655 14.9517 18.5859 14.8536 18.5859C14.7554 18.5859 14.6758 18.6655 14.6758 18.7637C14.6758 18.8619 14.7554 18.9415 14.8536 18.9415Z" fill="#000080"/>
<path d="M15.6075 19.1446C15.7056 19.1446 15.7852 19.065 15.7852 18.9668C15.7852 18.8687 15.7056 18.7891 15.6075 18.7891C15.5093 18.7891 15.4297 18.8687 15.4297 18.9668C15.4297 19.065 15.5093 19.1446 15.6075 19.1446Z" fill="#000080"/>
<path d="M16.3907 19.1446C16.4889 19.1446 16.5684 19.065 16.5684 18.9668C16.5684 18.8687 16.4889 18.7891 16.3907 18.7891C16.2925 18.7891 16.2129 18.8687 16.2129 18.9668C16.2129 19.065 16.2925 19.1446 16.3907 19.1446Z" fill="#000080"/>
<path d="M17.1465 18.9415C17.2447 18.9415 17.3243 18.8619 17.3243 18.7637C17.3243 18.6655 17.2447 18.5859 17.1465 18.5859C17.0483 18.5859 16.9688 18.6655 16.9688 18.7637C16.9688 18.8619 17.0483 18.9415 17.1465 18.9415Z" fill="#000080"/>
<path d="M17.8223 18.5509C17.9205 18.5509 18.0001 18.4713 18.0001 18.3731C18.0001 18.2749 17.9205 18.1953 17.8223 18.1953C17.7241 18.1953 17.6445 18.2749 17.6445 18.3731C17.6445 18.4713 17.7241 18.5509 17.8223 18.5509Z" fill="#000080"/>
<path d="M18.377 18.004C18.4752 18.004 18.5548 17.9244 18.5548 17.8262C18.5548 17.728 18.4752 17.6484 18.377 17.6484C18.2788 17.6484 18.1992 17.728 18.1992 17.8262C18.1992 17.9244 18.2788 18.004 18.377 18.004Z" fill="#000080"/>
<path d="M18.7676 17.3243C18.8658 17.3243 18.9454 17.2447 18.9454 17.1465C18.9454 17.0483 18.8658 16.9688 18.7676 16.9688C18.6694 16.9688 18.5898 17.0483 18.5898 17.1465C18.5898 17.2447 18.6694 17.3243 18.7676 17.3243Z" fill="#000080"/>
<path d="M18.9688 16.5665C19.067 16.5665 19.1466 16.4869 19.1466 16.3887C19.1466 16.2905 19.067 16.2109 18.9688 16.2109C18.8706 16.2109 18.791 16.2905 18.791 16.3887C18.791 16.4869 18.8706 16.5665 18.9688 16.5665Z" fill="#000080"/>
<path d="M18.9688 15.7852C19.067 15.7852 19.1466 15.7056 19.1466 15.6075C19.1466 15.5093 19.067 15.4297 18.9688 15.4297C18.8706 15.4297 18.791 15.5093 18.791 15.6075C18.791 15.7056 18.8706 15.7852 18.9688 15.7852Z" fill="#000080"/>
<path d="M18.7676 15.0274C18.8658 15.0274 18.9454 14.9478 18.9454 14.8497C18.9454 14.7515 18.8658 14.6719 18.7676 14.6719C18.6694 14.6719 18.5898 14.7515 18.5898 14.8497C18.5898 14.9478 18.6694 15.0274 18.7676 15.0274Z" fill="#000080"/>
<path d="M18.377 14.3556C18.4752 14.3556 18.5548 14.276 18.5548 14.1778C18.5548 14.0796 18.4752 14 18.377 14C18.2788 14 18.1992 14.0796 18.1992 14.1778C18.1992 14.276 18.2788 14.3556 18.377 14.3556Z" fill="#000080"/>
<path d="M17.8223 13.8009C17.9205 13.8009 18.0001 13.7213 18.0001 13.6231C18.0001 13.5249 17.9205 13.4453 17.8223 13.4453C17.7241 13.4453 17.6445 13.5249 17.6445 13.6231C17.6445 13.7213 17.7241 13.8009 17.8223 13.8009Z" fill="#000080"/>
<path d="M17.1465 13.4102C17.2447 13.4102 17.3243 13.3306 17.3243 13.2325C17.3243 13.1343 17.2447 13.0547 17.1465 13.0547C17.0483 13.0547 16.9688 13.1343 16.9688 13.2325C16.9688 13.3306 17.0483 13.4102 17.1465 13.4102Z" fill="#000080"/>
<path d="M16.3907 13.2071C16.4889 13.2071 16.5684 13.1275 16.5684 13.0293C16.5684 12.9312 16.4889 12.8516 16.3907 12.8516C16.2925 12.8516 16.2129 12.9312 16.2129 13.0293C16.2129 13.1275 16.2925 13.2071 16.3907 13.2071Z" fill="#000080"/>
<path d="M15.9992 16.7953C16.441 16.7953 16.7992 16.4371 16.7992 15.9953C16.7992 15.5535 16.441 15.1953 15.9992 15.1953C15.5574 15.1953 15.1992 15.5535 15.1992 15.9953C15.1992 16.4371 15.5574 16.7953 15.9992 16.7953Z" fill="#000080"/>
</svg>
