<svg width="20" height="20" viewBox="0 0 20 20" fill="none" xmlns="http://www.w3.org/2000/svg">
<path d="M7.50065 1.66797H4.16732V3.33464H2.50065V5.0013H0.833984V10.0013H2.50065V11.668H4.16732V13.3346H5.83398V15.0013H7.50065V16.668H9.16732V18.3346H10.834V16.668H12.5007V15.0013H14.1673V13.3346H15.834V11.668H17.5006V10.0013H19.1673V5.0013H17.5006V3.33464H15.834V1.66797H12.5007V3.33464H10.834V5.0013H9.16732V3.33464H7.50065V1.66797ZM7.50065 3.33464V5.0013H9.16732V6.66797H10.834V5.0013H12.5007V3.33464H15.834V5.0013H17.5006V10.0013H15.834V11.668H14.1673V13.3346H12.5007V15.0013H10.834V16.668H9.16732V15.0013H7.50065V13.3346H5.83398V11.668H4.16732V10.0013H2.50065V5.0013H4.16732V3.33464H7.50065Z" fill="white"/>
</svg>
